<svg xmlns="http://www.w3.org/2000/svg" viewBox="0 0 144 64" fill="currentColor" aria-hidden="true"><rect x="2.50" y="3.00" width="4" height="58.00" rx="2.00"/><rect x="11.50" y="10.04" width="4" height="43.91" rx="2.00"/><rect x="20.50" y="12.54" width="4" height="38.92" rx="2.00"/><rect x="29.50" y="15.97" width="4" height="32.06" rx="2.00"/><rect x="38.50" y="18.79" width="4" height="26.42" rx="2.00"/><rect x="47.50" y="22.14" width="4" height="19.72" rx="2.00"/><rect x="56.50" y="24.87" width="4" height="14.25" rx="2.00"/><rect x="65.50" y="26.89" width="4" height="10.22" rx="2.00"/><rect x="74.50" y="28.29" width="4" height="7.42" rx="2.00"/><rect x="83.50" y="29.00" width="4" height="6.00" rx="2.00"/><rect x="92.50" y="29.00" width="4" height="6.00" rx="2.00"/><rect x="101.50" y="29.00" width="4" height="6.00" rx="2.00"/><rect x="110.50" y="29.00" width="4" height="6.00" rx="2.00"/><rect x="119.50" y="29.00" width="4" height="6.00" rx="2.00"/><rect x="128.50" y="29.00" width="4" height="6.00" rx="2.00"/><rect x="137.50" y="29.00" width="4" height="6.00" rx="2.00"/></svg>
