<svg xmlns="http://www.w3.org/2000/svg" viewBox="0 0 144 64" fill="currentColor" aria-hidden="true"><rect x="2.50" y="3.00" width="4" height="58.00" rx="2.00"/><rect x="11.50" y="6.38" width="4" height="51.23" rx="2.00"/><rect x="20.50" y="10.94" width="4" height="42.12" rx="2.00"/><rect x="29.50" y="14.58" width="4" height="34.84" rx="2.00"/><rect x="38.50" y="17.93" width="4" height="28.13" rx="2.00"/><rect x="47.50" y="23.59" width="4" height="16.82" rx="2.00"/><rect x="56.50" y="25.67" width="4" height="12.65" rx="2.00"/><rect x="65.50" y="28.02" width="4" height="7.96" rx="2.00"/><rect x="74.50" y="28.83" width="4" height="6.34" rx="2.00"/><rect x="83.50" y="29.00" width="4" height="6.00" rx="2.00"/><rect x="92.50" y="29.00" width="4" height="6.00" rx="2.00"/><rect x="101.50" y="29.00" width="4" height="6.00" rx="2.00"/><rect x="110.50" y="29.00" width="4" height="6.00" rx="2.00"/><rect x="119.50" y="29.00" width="4" height="6.00" rx="2.00"/><rect x="128.50" y="29.00" width="4" height="6.00" rx="2.00"/><rect x="137.50" y="29.00" width="4" height="6.00" rx="2.00"/></svg>
