<svg xmlns="http://www.w3.org/2000/svg" viewBox="0 0 144 64" fill="currentColor" aria-hidden="true"><rect x="2.50" y="3.00" width="4" height="58.00" rx="2.00"/><rect x="11.50" y="12.46" width="4" height="39.07" rx="2.00"/><rect x="20.50" y="19.41" width="4" height="25.18" rx="2.00"/><rect x="29.50" y="24.07" width="4" height="15.87" rx="2.00"/><rect x="38.50" y="27.20" width="4" height="9.61" rx="2.00"/><rect x="47.50" y="28.99" width="4" height="6.01" rx="2.00"/><rect x="56.50" y="29.00" width="4" height="6.00" rx="2.00"/><rect x="65.50" y="29.00" width="4" height="6.00" rx="2.00"/><rect x="74.50" y="29.00" width="4" height="6.00" rx="2.00"/><rect x="83.50" y="29.00" width="4" height="6.00" rx="2.00"/><rect x="92.50" y="29.00" width="4" height="6.00" rx="2.00"/><rect x="101.50" y="29.00" width="4" height="6.00" rx="2.00"/><rect x="110.50" y="29.00" width="4" height="6.00" rx="2.00"/><rect x="119.50" y="29.00" width="4" height="6.00" rx="2.00"/><rect x="128.50" y="29.00" width="4" height="6.00" rx="2.00"/><rect x="137.50" y="29.00" width="4" height="6.00" rx="2.00"/></svg>
