<svg xmlns="http://www.w3.org/2000/svg" viewBox="0 0 144 64" fill="currentColor" aria-hidden="true"><rect x="2.50" y="3.00" width="4" height="58.00" rx="2.00"/><rect x="11.50" y="10.61" width="4" height="42.78" rx="2.00"/><rect x="20.50" y="13.43" width="4" height="37.14" rx="2.00"/><rect x="29.50" y="16.59" width="4" height="30.82" rx="2.00"/><rect x="38.50" y="19.04" width="4" height="25.93" rx="2.00"/><rect x="47.50" y="21.78" width="4" height="20.44" rx="2.00"/><rect x="56.50" y="24.39" width="4" height="15.22" rx="2.00"/><rect x="65.50" y="26.64" width="4" height="10.72" rx="2.00"/><rect x="74.50" y="28.38" width="4" height="7.23" rx="2.00"/><rect x="83.50" y="29.00" width="4" height="6.00" rx="2.00"/><rect x="92.50" y="29.00" width="4" height="6.00" rx="2.00"/><rect x="101.50" y="29.00" width="4" height="6.00" rx="2.00"/><rect x="110.50" y="29.00" width="4" height="6.00" rx="2.00"/><rect x="119.50" y="29.00" width="4" height="6.00" rx="2.00"/><rect x="128.50" y="29.00" width="4" height="6.00" rx="2.00"/><rect x="137.50" y="29.00" width="4" height="6.00" rx="2.00"/></svg>
