<svg xmlns="http://www.w3.org/2000/svg" viewBox="0 0 144 64" fill="currentColor" aria-hidden="true"><rect x="2.50" y="3.00" width="4" height="58.00" rx="2.00"/><rect x="11.50" y="8.92" width="4" height="46.15" rx="2.00"/><rect x="20.50" y="7.44" width="4" height="49.12" rx="2.00"/><rect x="29.50" y="4.61" width="4" height="54.79" rx="2.00"/><rect x="38.50" y="6.96" width="4" height="50.07" rx="2.00"/><rect x="47.50" y="10.28" width="4" height="43.44" rx="2.00"/><rect x="56.50" y="15.31" width="4" height="33.39" rx="2.00"/><rect x="65.50" y="19.28" width="4" height="25.43" rx="2.00"/><rect x="74.50" y="23.84" width="4" height="16.31" rx="2.00"/><rect x="83.50" y="26.26" width="4" height="11.49" rx="2.00"/><rect x="92.50" y="27.97" width="4" height="8.06" rx="2.00"/><rect x="101.50" y="29.00" width="4" height="6.00" rx="2.00"/><rect x="110.50" y="29.00" width="4" height="6.00" rx="2.00"/><rect x="119.50" y="29.00" width="4" height="6.00" rx="2.00"/><rect x="128.50" y="29.00" width="4" height="6.00" rx="2.00"/><rect x="137.50" y="29.00" width="4" height="6.00" rx="2.00"/></svg>
