<svg xmlns="http://www.w3.org/2000/svg" viewBox="0 0 144 64" fill="currentColor" aria-hidden="true"><rect x="2.50" y="3.00" width="4" height="58.00" rx="2.00"/><rect x="11.50" y="5.04" width="4" height="53.92" rx="2.00"/><rect x="20.50" y="8.14" width="4" height="47.72" rx="2.00"/><rect x="29.50" y="10.89" width="4" height="42.22" rx="2.00"/><rect x="38.50" y="14.45" width="4" height="35.10" rx="2.00"/><rect x="47.50" y="18.15" width="4" height="27.71" rx="2.00"/><rect x="56.50" y="21.64" width="4" height="20.72" rx="2.00"/><rect x="65.50" y="24.54" width="4" height="14.92" rx="2.00"/><rect x="74.50" y="26.31" width="4" height="11.39" rx="2.00"/><rect x="83.50" y="27.39" width="4" height="9.22" rx="2.00"/><rect x="92.50" y="28.54" width="4" height="6.92" rx="2.00"/><rect x="101.50" y="29.00" width="4" height="6.00" rx="2.00"/><rect x="110.50" y="29.00" width="4" height="6.00" rx="2.00"/><rect x="119.50" y="29.00" width="4" height="6.00" rx="2.00"/><rect x="128.50" y="29.00" width="4" height="6.00" rx="2.00"/><rect x="137.50" y="29.00" width="4" height="6.00" rx="2.00"/></svg>
