<svg xmlns="http://www.w3.org/2000/svg" viewBox="0 0 144 64" fill="currentColor" aria-hidden="true"><rect x="2.50" y="3.00" width="4" height="58.00" rx="2.00"/><rect x="11.50" y="12.42" width="4" height="39.16" rx="2.00"/><rect x="20.50" y="15.84" width="4" height="32.31" rx="2.00"/><rect x="29.50" y="18.47" width="4" height="27.06" rx="2.00"/><rect x="38.50" y="20.60" width="4" height="22.81" rx="2.00"/><rect x="47.50" y="21.96" width="4" height="20.08" rx="2.00"/><rect x="56.50" y="24.80" width="4" height="14.39" rx="2.00"/><rect x="65.50" y="26.37" width="4" height="11.25" rx="2.00"/><rect x="74.50" y="27.30" width="4" height="9.40" rx="2.00"/><rect x="83.50" y="28.23" width="4" height="7.54" rx="2.00"/><rect x="92.50" y="29.00" width="4" height="6.00" rx="2.00"/><rect x="101.50" y="29.00" width="4" height="6.00" rx="2.00"/><rect x="110.50" y="29.00" width="4" height="6.00" rx="2.00"/><rect x="119.50" y="29.00" width="4" height="6.00" rx="2.00"/><rect x="128.50" y="29.00" width="4" height="6.00" rx="2.00"/><rect x="137.50" y="29.00" width="4" height="6.00" rx="2.00"/></svg>
