<svg xmlns="http://www.w3.org/2000/svg" viewBox="0 0 144 64" fill="currentColor" aria-hidden="true"><rect x="2.50" y="3.00" width="4" height="58.00" rx="2.00"/><rect x="11.50" y="4.71" width="4" height="54.59" rx="2.00"/><rect x="20.50" y="10.40" width="4" height="43.19" rx="2.00"/><rect x="29.50" y="12.42" width="4" height="39.17" rx="2.00"/><rect x="38.50" y="16.97" width="4" height="30.06" rx="2.00"/><rect x="47.50" y="20.95" width="4" height="22.09" rx="2.00"/><rect x="56.50" y="24.27" width="4" height="15.46" rx="2.00"/><rect x="65.50" y="26.16" width="4" height="11.68" rx="2.00"/><rect x="74.50" y="27.62" width="4" height="8.77" rx="2.00"/><rect x="83.50" y="28.74" width="4" height="6.51" rx="2.00"/><rect x="92.50" y="29.00" width="4" height="6.00" rx="2.00"/><rect x="101.50" y="29.00" width="4" height="6.00" rx="2.00"/><rect x="110.50" y="29.00" width="4" height="6.00" rx="2.00"/><rect x="119.50" y="29.00" width="4" height="6.00" rx="2.00"/><rect x="128.50" y="29.00" width="4" height="6.00" rx="2.00"/><rect x="137.50" y="29.00" width="4" height="6.00" rx="2.00"/></svg>
