<svg xmlns="http://www.w3.org/2000/svg" viewBox="0 0 144 64" fill="currentColor" aria-hidden="true"><rect x="2.50" y="3.00" width="4" height="58.00" rx="2.00"/><rect x="11.50" y="17.07" width="4" height="29.86" rx="2.00"/><rect x="20.50" y="18.82" width="4" height="26.35" rx="2.00"/><rect x="29.50" y="21.11" width="4" height="21.77" rx="2.00"/><rect x="38.50" y="23.86" width="4" height="16.28" rx="2.00"/><rect x="47.50" y="26.19" width="4" height="11.63" rx="2.00"/><rect x="56.50" y="27.77" width="4" height="8.46" rx="2.00"/><rect x="65.50" y="28.84" width="4" height="6.33" rx="2.00"/><rect x="74.50" y="29.00" width="4" height="6.00" rx="2.00"/><rect x="83.50" y="29.00" width="4" height="6.00" rx="2.00"/><rect x="92.50" y="29.00" width="4" height="6.00" rx="2.00"/><rect x="101.50" y="29.00" width="4" height="6.00" rx="2.00"/><rect x="110.50" y="29.00" width="4" height="6.00" rx="2.00"/><rect x="119.50" y="29.00" width="4" height="6.00" rx="2.00"/><rect x="128.50" y="29.00" width="4" height="6.00" rx="2.00"/><rect x="137.50" y="29.00" width="4" height="6.00" rx="2.00"/></svg>
