<svg xmlns="http://www.w3.org/2000/svg" viewBox="0 0 144 64" fill="currentColor" aria-hidden="true"><rect x="2.50" y="3.00" width="4" height="58.00" rx="2.00"/><rect x="11.50" y="10.05" width="4" height="43.90" rx="2.00"/><rect x="20.50" y="14.55" width="4" height="34.90" rx="2.00"/><rect x="29.50" y="19.63" width="4" height="24.75" rx="2.00"/><rect x="38.50" y="22.43" width="4" height="19.15" rx="2.00"/><rect x="47.50" y="24.41" width="4" height="15.19" rx="2.00"/><rect x="56.50" y="26.32" width="4" height="11.37" rx="2.00"/><rect x="65.50" y="27.76" width="4" height="8.48" rx="2.00"/><rect x="74.50" y="29.00" width="4" height="6.00" rx="2.00"/><rect x="83.50" y="29.00" width="4" height="6.00" rx="2.00"/><rect x="92.50" y="29.00" width="4" height="6.00" rx="2.00"/><rect x="101.50" y="29.00" width="4" height="6.00" rx="2.00"/><rect x="110.50" y="29.00" width="4" height="6.00" rx="2.00"/><rect x="119.50" y="29.00" width="4" height="6.00" rx="2.00"/><rect x="128.50" y="29.00" width="4" height="6.00" rx="2.00"/><rect x="137.50" y="29.00" width="4" height="6.00" rx="2.00"/></svg>
